<svg id="Grupo_71" data-name="Grupo 71" xmlns="http://www.w3.org/2000/svg" xmlns:xlink="http://www.w3.org/1999/xlink" width="252.289" height="155.322" viewBox="0 0 252.289 155.322">
  <defs>
    <linearGradient id="linear-gradient" x1="0.5" y1="1" x2="0.5" gradientUnits="objectBoundingBox">
      <stop offset="0" stop-color="gray" stop-opacity="0.251"/>
      <stop offset="0.54" stop-color="gray" stop-opacity="0.122"/>
      <stop offset="1" stop-color="gray" stop-opacity="0.102"/>
    </linearGradient>
    <linearGradient id="linear-gradient-2" x1="0.001" y1="0.5" x2="1" y2="0.5" xlink:href="#linear-gradient"/>
  </defs>
  <path id="Caminho_27" data-name="Caminho 27" d="M263.359,187.1a51.7,51.7,0,0,1-1.514,12.475q-.51,2.061-1.185,4.04a48.12,48.12,0,0,1-1.911,4.781q-.546,1.18-1.155,2.318a31.184,31.184,0,0,1-2.607,12.528,32.314,32.314,0,0,1-15.675,16.15,32.986,32.986,0,0,1-14.011,3.213H58.966a41.912,41.912,0,0,1-21.081-5.633q-1.42-.823-2.767-1.752a41.857,41.857,0,0,1-5.477-4.515,40.758,40.758,0,0,1-6.021-7.469A39.81,39.81,0,0,1,17.5,201.983a50.124,50.124,0,0,1-6.426-24.821,49.188,49.188,0,0,1,9.941-30.105,42.325,42.325,0,0,1,4.222-4.7,39.286,39.286,0,0,1,4.828-3.952,37.26,37.26,0,0,1,4.284-2.57c.619-.317,1.24-.613,1.872-.889.555-.246,1.116-.476,1.684-.692q1.022-.39,2.069-.713t2.067-.57q1.5-.366,3.05-.6c.857-.126,1.714-.214,2.57-.283q1.022-.073,2.061-.086h.375c.763,0,1.521.03,2.273.081.079-.158.165-.319.244-.478.3-.57.61-1.14.923-1.7V129.9c.054-.1.107-.193.163-.287.253-.456.516-.908.786-1.356.124-.214.246-.416.373-.619.028-.049.056-.1.088-.146q.193-.321.392-.643.992-1.583,2.063-3.117c.062-.088.12-.174.182-.259.111-.159.214-.315.338-.471.3-.413.6-.829.906-1.238.214-.289.428-.578.66-.857q.835-1.08,1.714-2.142c.585-.707,1.2-1.418,1.825-2.114.086-.1.171-.191.261-.287l.915-1h0c.045-.047.084-.09.126-.133h0c.109-.118.214-.236.332-.351.491-.518.994-1.03,1.5-1.536a81.65,81.65,0,0,1,8.234-7.154c.114-.09.229-.176.343-.261.544-.411,1.1-.816,1.649-1.214a87.144,87.144,0,0,1,9.512-5.933c.227-.129.458-.251.692-.373a91.3,91.3,0,0,1,9.1-4.19q2.54-1,5.171-1.876c1.161-.379,2.326-.741,3.506-1.071q2.737-.786,5.543-1.418a99.249,99.249,0,0,1,16.759-2.283q2.57-.135,5.2-.135a99.6,99.6,0,0,1,25.061,3.17.9.9,0,0,0,.778.4h.72c.313.084.623.171.936.261q2.62.756,5.164,1.647l.428.154a92.19,92.19,0,0,1,12.19,5.355,88.264,88.264,0,0,1,10.206,6.306q.752.54,1.482,1.09.887-.572,1.8-1.09a35.47,35.47,0,0,1,7.471-3.183,34.078,34.078,0,0,1,16.759-.655,37.083,37.083,0,0,1,18.776,10.59,43.816,43.816,0,0,1,5.638,7.128c.118.184.236.371.349.559a47.123,47.123,0,0,1,3.586,7.152c.036.09.073.178.1.268a49.5,49.5,0,0,1,2.206,7.143c.026.122.056.246.081.371a51.433,51.433,0,0,1,1.054,7.148,1.356,1.356,0,0,0,.017.261q.135,1.866.137,3.772c0,1.135-.039,2.262-.109,3.378,0,.122-.017.251-.028.375-.019.326-.047.643-.075.97a40.636,40.636,0,0,1,4.58,4.318q.936,1.022,1.812,2.123a45.014,45.014,0,0,1,4.669,7.148A50.317,50.317,0,0,1,263.359,187.1Z" transform="translate(-11.07 -87.44)" fill="#6c63ff" opacity="0.1"/>
  <path id="Caminho_28" data-name="Caminho 28" d="M328.83,652.38c0,4.869-5.046,9.425-13.852,13.349H148.642a33.926,33.926,0,0,1-21.081-7.64,8.864,8.864,0,0,1-2.371-5.71c0-5.175,5.706-10.005,15.572-14.088h0l.278-.111c2.785-1.142,5.9-2.219,9.3-3.232.086-.026.173-.049.259-.079h0q4.048-1.189,8.613-2.253c.1-.021.191-.045.287-.062,1.174-.278,2.371-.538,3.594-.8h0l.471-.1a268.4,268.4,0,0,1,29.987-4.305h.013q2.3-.214,4.659-.383c1.746-.139,3.513-.257,5.3-.366,1.364-.088,2.746-.163,4.132-.231a.041.041,0,0,1,.032,0c6.252-.315,12.713-.48,19.318-.48a355.885,355.885,0,0,1,45.455,2.785.111.111,0,0,1,.039,0c2.1.274,4.168.563,6.182.872.576.09,1.15.18,1.714.272q3.408.551,6.64,1.163h0C312.372,635.8,328.83,643.593,328.83,652.38Z" transform="translate(-100.746 -510.556)" fill="#6c63ff" opacity="0.1"/>
  <path id="Caminho_29" data-name="Caminho 29" d="M725.068,198.921s-2.266-.919-9.476,2.386-8.109,2.887-9.975,2.39-2.907-.625-4.907-3.386c0,0-1.412-7.649-2.785-8.836s-7.169.677-7.169.677-6.959,1.6-8.285-7.711c0,0,.94-7.008-.341-9.159,0,0,2.587,1.114,6.854-.685s7.683,1.938,7.683,1.938a14.154,14.154,0,0,1,.964,4.447c-.107,1.662.57,2.285,2.6,1.482,0,0,1-1.422-.416-3.774s-2.427-4.1-2.033-5.927a7.362,7.362,0,0,1,5.184-5.625c3.652-1.266,8.611-1.5,10.99-2.5A9.532,9.532,0,0,0,716.928,163s-1.465,1.467,1.986,7.69,1.251,8.921,1.251,8.921-1.836,4.376-9.941,4.02c0,0-7.81.285-3.551,3.6,0,0,2.727-.555,6.8-1.851s7.019,4.053,7.75,7.773A9.8,9.8,0,0,0,725.068,198.921Z" transform="translate(-538.392 -146.815)" fill="#6c63ff"/>
  <path id="Caminho_30" data-name="Caminho 30" d="M811.012,184.953l.043-.013c.313,1.187-3.177,5.959-6.16,9.752l-.034-.028C809.067,189.322,811.254,185.872,811.012,184.953Z" transform="translate(-634.833 -164.056)" fill="#444053"/>
  <path id="Caminho_31" data-name="Caminho 31" d="M773.944,230l.019.047c-2.384,3.029-5.381,6.64-7.78,9.324-.229.255-.456.523-.675.8l-.069-.056c.214-.274.448-.544.677-.8C768.514,236.64,771.557,233.031,773.944,230Z" transform="translate(-603.857 -199.464)" fill="#444053"/>
  <path id="Caminho_32" data-name="Caminho 32" d="M745.389,276.89l.047.081c-4.365,5.451-4.654,13.923-4.665,13.989l-.921-1.071C739.861,289.821,740.994,282.38,745.389,276.89Z" transform="translate(-583.748 -236.311)" fill="#444053"/>
  <path id="Caminho_33" data-name="Caminho 33" d="M734.316,251.333s-5.141-2.677-9.159-1.714-13.055-3.406-13.055-3.406-3.834-1.557-4.605-3.333c0,0-2.632-2.785-2.785-4.222s-2.712-5.059-4.382-5.2" transform="translate(-552.693 -202.183)" fill="none" stroke="#444053" stroke-miterlimit="10" stroke-width="1"/>
  <path id="Caminho_34" data-name="Caminho 34" d="M846.98,315.053s-2.592-1.748-2.29-3.783" transform="translate(-666.113 -263.326)" fill="none" stroke="#444053" stroke-miterlimit="10" stroke-width="1"/>
  <path id="Caminho_35" data-name="Caminho 35" d="M821.98,315.163s-3.708-1.345-4.07-6.623" transform="translate(-645.088 -261.181)" fill="none" stroke="#444053" stroke-miterlimit="10" stroke-width="1"/>
  <path id="Caminho_36" data-name="Caminho 36" d="M799.439,316.215a8.3,8.3,0,0,1-2.367-8.075" transform="translate(-628.526 -260.867)" fill="none" stroke="#444053" stroke-miterlimit="10" stroke-width="1"/>
  <path id="Caminho_37" data-name="Caminho 37" d="M771.27,309.177s-2.356-4.948-.259-8.167" transform="translate(-607.552 -255.264)" fill="none" stroke="#444053" stroke-miterlimit="10" stroke-width="1"/>
  <path id="Caminho_38" data-name="Caminho 38" d="M851.21,301.67s-2.68.857-2.106,2.262" transform="translate(-669.537 -255.783)" fill="none" stroke="#444053" stroke-miterlimit="10" stroke-width="1"/>
  <path id="Caminho_39" data-name="Caminho 39" d="M830.661,279s-3.588,1.137-3.671,6.212" transform="translate(-652.223 -237.969)" fill="none" stroke="#444053" stroke-miterlimit="10" stroke-width="1"/>
  <path id="Caminho_40" data-name="Caminho 40" d="M809.62,273.48s-3.266,4.031-3.027,7.694" transform="translate(-636.186 -233.631)" fill="none" stroke="#444053" stroke-miterlimit="10" stroke-width="1"/>
  <path id="Caminho_41" data-name="Caminho 41" d="M783.556,280.86s-3.243,3.1-2.829,4.826" transform="translate(-615.841 -239.43)" fill="none" stroke="#444053" stroke-miterlimit="10" stroke-width="1"/>
  <path id="Caminho_42" data-name="Caminho 42" d="M772.218,274.084s-3.042.544-3.468-.454" transform="translate(-606.458 -233.749)" fill="none" stroke="#444053" stroke-miterlimit="10" stroke-width="1"/>
  <path id="Caminho_43" data-name="Caminho 43" d="M766.49,258.61s1.536,2.035,1.928,1.579" transform="translate(-604.682 -221.946)" fill="none" stroke="#444053" stroke-miterlimit="10" stroke-width="1"/>
  <path id="Caminho_44" data-name="Caminho 44" d="M803.113,246.156s-7.668.557-9.4-1.756" transform="translate(-626.072 -210.78)" fill="none" stroke="#444053" stroke-miterlimit="10" stroke-width="1"/>
  <path id="Caminho_45" data-name="Caminho 45" d="M759,210.73s3.6,7.722,6.212,8.7" transform="translate(-598.796 -184.322)" fill="none" stroke="#444053" stroke-miterlimit="10" stroke-width="1"/>
  <path id="Caminho_46" data-name="Caminho 46" d="M776.58,193.56s2.208,7.1,4.946,9.32" transform="translate(-612.611 -170.829)" fill="none" stroke="#444053" stroke-miterlimit="10" stroke-width="1"/>
  <path id="Caminho_47" data-name="Caminho 47" d="M818.44,225.12s-5.83,2.5-9.33-.03" transform="translate(-638.173 -195.606)" fill="none" stroke="#444053" stroke-miterlimit="10" stroke-width="0.75"/>
  <path id="Caminho_48" data-name="Caminho 48" d="M800.82,186.49s1.332,5.22,3.127,6.482" transform="translate(-631.659 -165.274)" fill="none" stroke="#444053" stroke-miterlimit="10" stroke-width="0.75"/>
  <path id="Caminho_49" data-name="Caminho 49" d="M832.058,197.92s-3.277,1.242-4.5.291" transform="translate(-652.671 -174.256)" fill="none" stroke="#444053" stroke-miterlimit="10" stroke-width="0.75"/>
  <path id="Caminho_50" data-name="Caminho 50" d="M748.838,266.57s0,4.552-1.238,4.875" transform="translate(-589.838 -228.201)" fill="none" stroke="#444053" stroke-miterlimit="10" stroke-width="1"/>
  <path id="Caminho_51" data-name="Caminho 51" d="M706.09,286.328s4.926.428,7.19-2.118" transform="translate(-557.22 -242.063)" fill="none" stroke="#444053" stroke-miterlimit="10" stroke-width="1"/>
  <path id="Caminho_52" data-name="Caminho 52" d="M731.037,241.47s-1.191,4.616-4.477,5.86" transform="translate(-573.305 -208.477)" fill="none" stroke="#444053" stroke-miterlimit="10" stroke-width="1"/>
  <path id="Caminho_53" data-name="Caminho 53" d="M692.31,264.532a6.446,6.446,0,0,0,6.479-1.872" transform="translate(-546.391 -225.129)" fill="none" stroke="#444053" stroke-miterlimit="10" stroke-width="1"/>
  <path id="Caminho_54" data-name="Caminho 54" d="M720.349,222.94s-.328,3.92-2.459,5.755" transform="translate(-566.492 -193.916)" fill="none" stroke="#444053" stroke-miterlimit="10" stroke-width="1"/>
  <path id="Caminho_55" data-name="Caminho 55" d="M692.93,240.123s2.889.019,3.566-.923" transform="translate(-546.878 -206.694)" fill="none" stroke="#444053" stroke-miterlimit="10" stroke-width="1"/>
  <rect id="Retângulo_32" data-name="Retângulo 32" width="82.294" height="41.541" transform="translate(84.657 48.314)" fill="#33323d"/>
  <rect id="Retângulo_33" data-name="Retângulo 33" width="133.825" height="27.344" transform="translate(59.022 102.476)" fill="#33323d"/>
  <path id="Caminho_56" data-name="Caminho 56" d="M371.62,510.35h68.622l13.672,46.011H357.16Z" transform="translate(-280.654 -401.039)" fill="#fff"/>
  <path id="Caminho_57" data-name="Caminho 57" d="M257.73,402.33v43.645h25.635V420.736h90.181v25.239h25.635V402.33Z" transform="translate(-202.521 -316.157)" fill="#504f60"/>
  <rect id="Retângulo_34" data-name="Retângulo 34" width="141.451" height="14.197" transform="translate(55.209 86.173)" fill="#33323d" opacity="0.1"/>
  <circle id="Elipse_5" data-name="Elipse 5" cx="2.103" cy="2.103" r="2.103" transform="translate(186.933 91.17)" fill="#8ccf4d" opacity="0.8"/>
  <circle id="Elipse_6" data-name="Elipse 6" cx="2.103" cy="2.103" r="2.103" transform="translate(177.468 91.17)" fill="#fa5959" opacity="0.8"/>
  <rect id="Retângulo_35" data-name="Retângulo 35" width="76.247" height="45.221" transform="translate(87.681 38.322)" fill="#fff"/>
  <path id="Caminho_58" data-name="Caminho 58" d="M781.7,563.756c.161,1.75-1.161,3.449-.775,5.162.081.366.24.713.3,1.071a4.173,4.173,0,0,1-1.028,2.834l-4.976,7.321a4.539,4.539,0,0,1-.711.878c-.953.857-2.38.758-3.628,1.011a6.229,6.229,0,0,0-2.431,1.071.158.158,0,0,0-.032.214,2.092,2.092,0,0,0,1.808.857c.131.171,0,.428-.18.548-.268.184-.643.234-.687.688a.753.753,0,0,0,.09.456,1.416,1.416,0,0,0,.872.6c1.714.527,3.583-.4,4.873-1.658s2.215-2.849,3.481-4.132c.7-.709,1.5-1.317,2.219-2a24.921,24.921,0,0,0,3.641-4.712,5.184,5.184,0,0,0,.788-1.6c.133-.57.073-1.172.227-1.737a6.416,6.416,0,0,1,1.193-1.949,6.439,6.439,0,0,0,1.356-4.2,4.024,4.024,0,0,0-2.457-3.485,2.2,2.2,0,0,0-1.377-.084,3.268,3.268,0,0,0-1.4,1.116l-.945,1.09a2.635,2.635,0,0,0-.551.837.872.872,0,0,0,.195.93" transform="translate(-606.175 -459.432)" fill="#fbbebe"/>
  <path id="Caminho_59" data-name="Caminho 59" d="M781.7,563.756c.161,1.75-1.161,3.449-.775,5.162.081.366.24.713.3,1.071a4.173,4.173,0,0,1-1.028,2.834l-4.976,7.321a4.539,4.539,0,0,1-.711.878c-.953.857-2.38.758-3.628,1.011a6.229,6.229,0,0,0-2.431,1.071.158.158,0,0,0-.032.214,2.092,2.092,0,0,0,1.808.857c.131.171,0,.428-.18.548-.268.184-.643.234-.687.688a.753.753,0,0,0,.09.456,1.416,1.416,0,0,0,.872.6c1.714.527,3.583-.4,4.873-1.658s2.215-2.849,3.481-4.132c.7-.709,1.5-1.317,2.219-2a24.921,24.921,0,0,0,3.641-4.712,5.184,5.184,0,0,0,.788-1.6c.133-.57.073-1.172.227-1.737a6.416,6.416,0,0,1,1.193-1.949,6.439,6.439,0,0,0,1.356-4.2,4.024,4.024,0,0,0-2.457-3.485,2.2,2.2,0,0,0-1.377-.084,3.268,3.268,0,0,0-1.4,1.116l-.945,1.09a2.635,2.635,0,0,0-.551.837.872.872,0,0,0,.195.93" transform="translate(-606.175 -459.432)" opacity="0.05"/>
  <path id="Caminho_60" data-name="Caminho 60" d="M832.17,777.331a5.756,5.756,0,0,1-3.706.548c-.214-.024-.443-.039-.574.118-.189.229.034.563.263.748a5.515,5.515,0,0,0,2.547,1.047,17.243,17.243,0,0,0,2.489.165,42.181,42.181,0,0,0,6.8-.251.919.919,0,0,0,.37-.109.688.688,0,0,0,.281-.428,1.689,1.689,0,0,0-.589-1.617,5.125,5.125,0,0,0-1.587-.857l-1.975-.769a5.1,5.1,0,0,0-1.714-.623C833.856,775.378,832.954,776.873,832.17,777.331Z" transform="translate(-652.875 -627.964)" fill="#3f3d56"/>
  <path id="Caminho_61" data-name="Caminho 61" d="M832.17,777.331a5.756,5.756,0,0,1-3.706.548c-.214-.024-.443-.039-.574.118-.189.229.034.563.263.748a5.515,5.515,0,0,0,2.547,1.047,17.243,17.243,0,0,0,2.489.165,42.181,42.181,0,0,0,6.8-.251.919.919,0,0,0,.37-.109.688.688,0,0,0,.281-.428,1.689,1.689,0,0,0-.589-1.617,5.125,5.125,0,0,0-1.587-.857l-1.975-.769a5.1,5.1,0,0,0-1.714-.623C833.856,775.378,832.954,776.873,832.17,777.331Z" transform="translate(-652.875 -627.964)" opacity="0.05"/>
  <path id="Caminho_62" data-name="Caminho 62" d="M849.058,621.147c-.82,1.095-1.673,2.356-1.469,3.712a8.251,8.251,0,0,0,.818,2.05,14.446,14.446,0,0,1,.829,2.879c.308,1.433.617,2.87.805,4.325.214,1.643-.792,6.4-.887,8.052a1.7,1.7,0,0,1-.347,1.118c-.109.114-.255.214-.3.353a.593.593,0,0,0,.064.416,4.61,4.61,0,0,0,2.468,2.271,19.575,19.575,0,0,0,4.762,1.251.9.9,0,0,0,.448-.06.857.857,0,0,0,.347-.4c.827-1.579.032-7.2.045-8.983,0-1.5.362-2.964.3-4.451-.054-1.193-.373-2.356-.488-3.547a20.9,20.9,0,0,1,.527-5.837c.274-1.476.548-2.954.9-4.415a8.511,8.511,0,0,1,.953-2.57c.388-.615.915-1.127,1.358-1.714a7.711,7.711,0,0,0,1.519-5.651,14.431,14.431,0,0,0-3.1.825,9.7,9.7,0,0,0-2.761,1.778A25.117,25.117,0,0,0,854.1,614.7q-1.214,1.478-2.4,2.979Q850.362,619.407,849.058,621.147Z" transform="translate(-668.385 -498.007)" fill="#464353"/>
  <path id="Caminho_63" data-name="Caminho 63" d="M849.058,620.9c-.82,1.094-1.673,2.356-1.469,3.714a8.27,8.27,0,0,0,.818,2.048,14.481,14.481,0,0,1,.829,2.879c.308,1.433.617,2.87.805,4.325.214,1.643-.792,6.4-.887,8.054a1.7,1.7,0,0,1-.347,1.116c-.109.114-.255.214-.3.353a.6.6,0,0,0,.064.428,4.606,4.606,0,0,0,2.468,2.268,18.857,18.857,0,0,0,4.762.893.9.9,0,0,0,.448-.06.857.857,0,0,0,.347-.4c.827-1.579.032-6.841.045-8.624,0-1.5.362-2.967.3-4.453-.054-1.193-.373-2.356-.488-3.547a20.88,20.88,0,0,1,.527-5.835c.274-1.478.548-2.956.9-4.417a8.51,8.51,0,0,1,.953-2.57c.388-.613.915-1.127,1.358-1.7a7.726,7.726,0,0,0,1.519-5.65,14.188,14.188,0,0,0-3.1.825,9.65,9.65,0,0,0-2.761,1.782,27.108,27.108,0,0,0-1.741,2.142q-1.215,1.478-2.4,2.982Q850.362,619.17,849.058,620.9Z" transform="translate(-668.385 -497.832)" opacity="0.05"/>
  <circle id="Elipse_7" data-name="Elipse 7" cx="4.612" cy="4.612" r="4.612" transform="translate(166.916 89.817)" fill="#fbbebe"/>
  <path id="Caminho_64" data-name="Caminho 64" d="M815.09,524.156a5.985,5.985,0,0,0,3.828,2.677l-.347,1.257c-.6,2.17-1.285,4.464-2.949,5.968a2.8,2.8,0,0,0-.469-2.157,8.27,8.27,0,0,0-1.566-1.636l-2.654-2.309a.791.791,0,0,1-.2-.214.687.687,0,0,1,0-.505,6.173,6.173,0,0,1,2.086-2.42,7.409,7.409,0,0,0,1.05-1.223C814.413,522.836,814.741,523.592,815.09,524.156Z" transform="translate(-639.411 -429.92)" fill="#fbbebe"/>
  <path id="Caminho_65" data-name="Caminho 65" d="M779.233,493.106l-.1-.857c.728.188,1.418-.428,1.883-1.071s.9-1.4,1.607-1.662c.857-.326,1.774.195,2.6.623a8.224,8.224,0,0,0,2.982.975,1.928,1.928,0,0,1,.493.081,1.7,1.7,0,0,1,.867,1.471,5.674,5.674,0,0,0,.321,1.8c.2.411.544.718.754,1.122.563,1.092.019,2.583.615,3.654l-1.478-1.356c-.137-.124-.328-.253-.476-.148s-.126.263-.176.407a.773.773,0,0,1-1.052.383,2.88,2.88,0,0,1-.94-.857,5.723,5.723,0,0,0-2.356-1.778,3.012,3.012,0,0,0-2.483.148c-.69.39-1.2,1.3-2.039,1.33-1.159.043-1.641-2.114-2.178-2.967a1.05,1.05,0,0,0,.3-1.309C778.468,493.063,779.218,492.966,779.233,493.106Z" transform="translate(-613.782 -403.312)" fill="#464353"/>
  <path id="Caminho_66" data-name="Caminho 66" d="M858.349,774.84a4.875,4.875,0,0,1-3.316,1.236c-.311,0-.741.06-.743.371a.5.5,0,0,0,.09.257,3.047,3.047,0,0,0,1.714,1.341,6.087,6.087,0,0,0,2.069.133l2.024-.1c.381-.021.765-.041,1.146-.088s.792-.126,1.191-.184a15.581,15.581,0,0,1,2.947-.139.875.875,0,0,0,.726-.2c.163-.2.075-.553.015-.837-.12-.587,0-1.2-.111-1.791a3.152,3.152,0,0,0-2.065-2.2c-.91-.347-2.525-.743-3.389-.167A22.686,22.686,0,0,0,858.349,774.84Z" transform="translate(-673.676 -625.509)" fill="#3f3d56"/>
  <path id="Caminho_67" data-name="Caminho 67" d="M867.64,607.52c.18.857,1,1.5,1.026,2.356a3.713,3.713,0,0,1-.833,1.874,12.421,12.421,0,0,0-.857,1.928,29.476,29.476,0,0,1-2.5,4.959,3.938,3.938,0,0,0-.9,2.455,3.677,3.677,0,0,0,.428,1.174l1.424,2.829a8.139,8.139,0,0,1,.728,1.789c.122.538.135,1.094.214,1.643.225,1.735,1.039,3.483.559,5.164-.043.146-.193.321-.306.214a5.342,5.342,0,0,1,.812,2.761,3.8,3.8,0,0,0,.015,1.555,1.691,1.691,0,0,1,.214.613c0,.141-.066.276-.081.428a.916.916,0,0,0,.711.857c.383.122.8.118,1.182.233a7.115,7.115,0,0,1,1.906,1.3,4.007,4.007,0,0,0,2.189.713.548.548,0,0,0,.321-.064.522.522,0,0,0,.18-.392,2.172,2.172,0,0,0-.784-1.887.872.872,0,0,1-.289-.3.729.729,0,0,1-.028-.341,25.43,25.43,0,0,0-.083-4.674,7.069,7.069,0,0,1-.075-1.486,5.777,5.777,0,0,0,.12-1.238,6.622,6.622,0,0,0-.379-1.185,8.506,8.506,0,0,1-.182-2.206,19.232,19.232,0,0,0-.625-3.8,2.838,2.838,0,0,0-.591-1.371c-.3-.308-.773-.606-.662-1.017a1.178,1.178,0,0,1,.27-.4,1.625,1.625,0,0,0,.341-1.24.553.553,0,0,0,.643-.3,9.973,9.973,0,0,0,5.012-5.7,1.894,1.894,0,0,1,.214-.508,2.317,2.317,0,0,1,.917-.6A6.96,6.96,0,0,0,880.3,611.2a5.706,5.706,0,0,0,.93-1.784,5.855,5.855,0,0,0,.128-1.285l.058-2.232a1.2,1.2,0,0,0-.043-.428,1.035,1.035,0,0,0-.24-.353,4.3,4.3,0,0,0-2.356-1.285c-.608-.109-1.229-.088-1.844-.139a23.42,23.42,0,0,0-3.564-.381,5.7,5.7,0,0,0-4.43,3.1C868.632,607,868.306,607.52,867.64,607.52Z" transform="translate(-680.962 -492.805)" fill="#464353"/>
  <path id="Caminho_68" data-name="Caminho 68" d="M826.406,537.041a2.45,2.45,0,0,1-.135,1.015.71.71,0,0,1-.833.428c.1-.214-.161-.469-.4-.441a.741.741,0,0,0-.527.448,1.661,1.661,0,0,0-.152,1.03,4.164,4.164,0,0,1,.261,1.285c-.054.364-.321.728-.178,1.071a1.733,1.733,0,0,0,.343.411,1.161,1.161,0,0,1-.122,1.6l3.594.071a2.539,2.539,0,0,0,.445,1.75,11.023,11.023,0,0,0,8.214,5.355.717.717,0,0,0-.171,1.094,1.012,1.012,0,0,0,1.152.064,8.439,8.439,0,0,0,.99-.739,3.022,3.022,0,0,1,2.031-.548c.45.043.887.188,1.339.214,1.332.071,2.476-.887,3.751-1.285a8.825,8.825,0,0,0,2.785-.87,1.1,1.1,0,0,0,.516-1.071,1.775,1.775,0,0,0-.388-.63,10.671,10.671,0,0,1-1.039-1.947,11.668,11.668,0,0,0-2.6-3.479,23.329,23.329,0,0,0-2.57-1.956,4.526,4.526,0,0,0-.7-.428,7.311,7.311,0,0,1-.955-.388,4.838,4.838,0,0,1-.99-1.114,14.9,14.9,0,0,0-2.686-1.868,6.591,6.591,0,0,0-1.812-1.227c-.341-.1-.7-.111-1.047-.214-.775-.236-1.341-.925-2.1-1.2a8.94,8.94,0,0,0-1.906-.242,4.4,4.4,0,0,1-1.956-.743,2.353,2.353,0,0,0-.643-.368c-.962-.293-1.041,1.5-1.131,2.123A19.123,19.123,0,0,0,826.406,537.041Z" transform="translate(-650.137 -436.84)" fill="#6c63ff"/>
  <path id="Caminho_69" data-name="Caminho 69" d="M789.542,572.54c.161,1.75-1.161,3.446-.775,5.162.081.366.24.713.3,1.071a4.153,4.153,0,0,1-1.028,2.832l-4.976,7.3a4.544,4.544,0,0,1-.711.878c-.953.857-2.38.758-3.629,1.011a6.244,6.244,0,0,0-2.431,1.071.159.159,0,0,0-.032.214,2.086,2.086,0,0,0,1.808.857c.131.174,0,.428-.18.548-.268.186-.643.236-.687.69a.753.753,0,0,0,.09.456,1.425,1.425,0,0,0,.872.6c1.714.527,3.583-.4,4.873-1.658s2.215-2.849,3.483-4.132c.7-.709,1.5-1.317,2.217-2a25.279,25.279,0,0,0,3.641-4.712,5.209,5.209,0,0,0,.788-1.6c.133-.57.073-1.172.227-1.737a6.392,6.392,0,0,1,1.193-1.949,6.44,6.44,0,0,0,1.356-4.2,4.025,4.025,0,0,0-2.457-3.485,2.189,2.189,0,0,0-1.377-.083,3.279,3.279,0,0,0-1.4,1.116l-.945,1.09a2.59,2.59,0,0,0-.548.838.868.868,0,0,0,.193.927" transform="translate(-612.335 -466.32)" fill="#fbbebe"/>
  <path id="Caminho_70" data-name="Caminho 70" d="M838.329,549.562a2.733,2.733,0,0,0-1.838.57,2.641,2.641,0,0,0-.463.724,7.242,7.242,0,0,0-.917,2.887,13.635,13.635,0,0,0,.332,2.414,8.858,8.858,0,0,1-.214,2.026,14.088,14.088,0,0,0,2.62-1.007,8.668,8.668,0,0,1,1.532-.8,4.573,4.573,0,0,1,2.832.553c.041-.523-.349-1.429-.308-1.951a2.207,2.207,0,0,1,.116-.643,3.952,3.952,0,0,1,.392-.623,2.553,2.553,0,0,0-.229-3,4.118,4.118,0,0,0-2.673-1.133,11.587,11.587,0,0,0-1.868-.066" transform="translate(-658.604 -450.532)" fill="#6c63ff"/>
  <path id="Caminho_71" data-name="Caminho 71" d="M271.015,355.473l-4.224-6.126a5.775,5.775,0,0,0-.356-1.87c-.276-.353-.06-1.142-.06-1.142s.3-.428.041-.473-.041-1-.041-1l-.019-1.536a5.389,5.389,0,0,0,.041-1.831.58.58,0,0,1,.019-.632s.236-.846,0-1.071a6.421,6.421,0,0,1-.12-2.581,3.921,3.921,0,0,0-.413-1.791c0-.156-1.559-1.694-1.559-1.834a3.785,3.785,0,0,0-1.581-.857c-.593-.148-.887-.276-.867-.356s-.927-.392-.927-.392a1.874,1.874,0,0,1-1.146-.473c-.317-.413-1.285-.533-1.309-.538l-.019-.081a.442.442,0,0,0-.017-.09,4.157,4.157,0,0,0,.214-.386l.056-.12a1.675,1.675,0,0,0,.97-.3,1.313,1.313,0,0,0,.473-.945,2.065,2.065,0,0,0-.231-1.05,1.758,1.758,0,0,1-.338-1.107c.039-.165.137-.311.188-.473a1.251,1.251,0,0,0-.141-.934c-.15-.285-.358-.538-.525-.814a3.213,3.213,0,0,1-.418-1.152,1.775,1.775,0,0,0-.152-.628,1.172,1.172,0,0,0-.347-.349,3.466,3.466,0,0,0-2.123-.643,10.382,10.382,0,0,1-1.606.1,5.759,5.759,0,0,1-.938-.244,2.42,2.42,0,0,0-2,.1c-.576.379-.805,1.125-1.2,1.714a12.462,12.462,0,0,0-1.114,1.5v-.03a1.794,1.794,0,0,0-.148.4,2.823,2.823,0,0,0,.088,1.307.908.908,0,0,0,.319.583,1.842,1.842,0,0,0,.69.137l-.026.111a4.509,4.509,0,0,0,3.129,5.243v.12a2.871,2.871,0,0,1-.021.338h0a6.87,6.87,0,0,0-2.519-.133c-.533.276-1.579.493-1.737.643s-.553.041-.908.966-.394,1.87-.857,2.3-.69.728-.711,1.043.06.394-.118.493-.428.512-.356.67a.559.559,0,0,1-.214.589.655.655,0,0,0-.276.591s-.12.428-.4.533-.454.748-.454.748l-.9,1.028-1.774-1.962a.75.75,0,0,0-1.056-.054l-.872.784a1.726,1.726,0,0,0-.872.518,2.322,2.322,0,0,0-.452.673l-.475.428a1.214,1.214,0,0,0-.124,1.339l1.137,1.257v.011a2.013,2.013,0,0,0-1.1.448c-1.7,1.5-1.714,2.877-1.461,3.506a25.921,25.921,0,0,0,2.408,3.052,9.61,9.61,0,0,0,3.057,2.489h0l-.013.015a1.491,1.491,0,0,0-.1.122l-.03.039-.028.039-.032.047a.369.369,0,0,0-.024.039l-.034.056a.342.342,0,0,0-.021.039c-.015.026-.028.051-.041.077q-.007.013-.013.026c-.017.034-.034.069-.049.107l-.017.039c-.011.026-.019.051-.03.079a.492.492,0,0,0-.017.051l-.026.077a.428.428,0,0,0-.017.056.469.469,0,0,1-.024.086c-.006.03-.011.034-.015.054s-.021.092-.03.141a.108.108,0,0,1-.011.056.515.515,0,0,0-.017.1.275.275,0,0,0,0,.073l-.013.1v.077a.4.4,0,0,1-.011.111c-.011.039,0,.045,0,.069v.191a10.908,10.908,0,0,0,.1,2.639,1.285,1.285,0,0,0,1.047.786,1.306,1.306,0,0,0,.336-.017,19.236,19.236,0,0,1,4.284-.428,7.364,7.364,0,0,0,2.129-.173l.178-.034.122.392.39-.107.332.191.214.122c.39,1.319,1.971.87,1.971.87l.375.214,3.811.1a7.646,7.646,0,0,0,1.349.643,1.038,1.038,0,0,0,.191.043,8.481,8.481,0,0,0,1.071.019c.291,0,.516-.019.516-.019s-.039-1.035-.094-2.193a31.082,31.082,0,0,0,3.53-.289,4.342,4.342,0,0,0,3.2-3.2,9.333,9.333,0,0,1,.2,1.227,8.9,8.9,0,0,0,.317,1.071,3.57,3.57,0,0,0,.428.788c1.5-.512.591-1.285.276-1.615s.214-.61.214-.61.416-.276.375-.531-.06-.531,1.285-.512S271.015,355.473,271.015,355.473ZM250.169,342.9a10.215,10.215,0,0,0,.373,1.645,2.142,2.142,0,0,1,.045.643c-.795-.064-1.624-.1-1.624-.1a.2.2,0,0,1,.043.1l-.126-.028-.18-.043,1.465-2.23Zm-2.9,4.618,1.377.214.116.017a4.5,4.5,0,0,0-.071.643c0,.021.03.045.075.073a1.7,1.7,0,0,0-.026.328,3.819,3.819,0,0,0,1.4.538c-.011.041-.019.079-.03.113h0c-.653-.343-1.679-.5-1.8-.758a26.522,26.522,0,0,0-3.613-1.476l-.347-.174.919.174.253-.026a13.643,13.643,0,0,0,1.741.334Z" transform="translate(-188.331 -271.429)" fill="url(#linear-gradient)"/>
  <path id="Caminho_72" data-name="Caminho 72" d="M284.877,456.671s-.546,3.307-3.324,3.8-12.053.392-12.053.392-5.3-.765-7.221-5.243-3.151-6.263-1.5-6.34,10.508,3,11.016,3.033S285.367,445.5,284.877,456.671Z" transform="translate(-206.687 -371.77)" fill="#65617d"/>
  <path id="Caminho_73" data-name="Caminho 73" d="M284.877,456.671s-.546,3.307-3.324,3.8-12.053.392-12.053.392-5.3-.765-7.221-5.243-3.151-6.263-1.5-6.34,10.508,3,11.016,3.033S285.367,445.5,284.877,456.671Z" transform="translate(-206.687 -371.77)" opacity="0.05"/>
  <path id="Caminho_74" data-name="Caminho 74" d="M259.636,482.6a1.266,1.266,0,0,0,1.037.782,1.419,1.419,0,0,0,.336-.019,19.311,19.311,0,0,1,4.245-.428,7.366,7.366,0,0,0,2.108-.171c.443-.084.769-.163.769-.163s-.784-2.6-.88-2.68-3.524-2.142-3.524-2.142l-2.712-.195h0a1.433,1.433,0,0,0-.921.54,2.9,2.9,0,0,0-.548,1.846A10.794,10.794,0,0,0,259.636,482.6Z" transform="translate(-206.316 -394.014)" fill="#3f3d56"/>
  <path id="Caminho_75" data-name="Caminho 75" d="M259.664,482.644a1.266,1.266,0,0,0,1.037.782,11.512,11.512,0,0,1-.737-1.071l.015-1.9a3.35,3.35,0,0,1,1.071-2.817h0s-1.429.1-1.469,2.386A11.532,11.532,0,0,0,259.664,482.644Z" transform="translate(-206.344 -394.061)" opacity="0.05"/>
  <path id="Caminho_76" data-name="Caminho 76" d="M309.142,459.83l2.525-1.977,3.971-3.913-1.071-.049c-.161.1-.61.428-.628.818-.019.478-1.071.034-1.621.306s-3.228,3.706-3.7,3.682-.842-.238-1.039.1l-.013.021Z" transform="translate(-244.061 -375.398)" opacity="0.1"/>
  <path id="Caminho_77" data-name="Caminho 77" d="M262.11,478.108c.09.043.182.086.274.124a17.387,17.387,0,0,1,4.462,2.857,18.618,18.618,0,0,0,2.538,1.649c.443-.084.769-.163.769-.163s-.784-2.6-.88-2.68-3.524-2.142-3.524-2.142l-2.712-.195h0A1.433,1.433,0,0,0,262.11,478.108Z" transform="translate(-208.338 -393.998)" opacity="0.1"/>
  <path id="Caminho_78" data-name="Caminho 78" d="M236.839,439.418a26.008,26.008,0,0,0,2.386,3.033,9.239,9.239,0,0,0,3.269,2.57,16.933,16.933,0,0,1,4.46,2.857,20.6,20.6,0,0,0,2.718,1.754l.242.141.533.311.283.161s.655-.525,1.309-1.054,1.285-1.047,1.285-1.071.274-.724.214-.763-.165-.291-.413-.606a2.759,2.759,0,0,0-1-.823,2.838,2.838,0,0,1-1.285-1.347s-.086-.062-.214-.146a2.652,2.652,0,0,0-.878-.392c-.428-.054-1.234-.934-1.234-.934a2.394,2.394,0,0,1-.763-.8,28.978,28.978,0,0,0-3.521-2.707l7.355,4.725,1.761,1.131,2.525-1.975,3.971-3.913-1.311-.06c-1.928-.083-5.355-.214-5.783-.116a3.359,3.359,0,0,1-1.071.071,3.792,3.792,0,0,1-1.624-.3c-.647-.341-1.664-.5-1.782-.754a26.334,26.334,0,0,0-3.579-1.465s-4.712-2.5-6.4-1.017S236.584,438.788,236.839,439.418Z" transform="translate(-188.388 -360.915)" fill="#65617d"/>
  <path id="Caminho_79" data-name="Caminho 79" d="M308.24,365.619l.606,2.016.784,4.539,2.877.195.823-1.371.831-1.379s.518-1.833.891-3.607c.328-1.57.544-3.1.186-3.26-.319-.146-.527-.675-.664-1.244-.017-.069-.032-.141-.045-.214a11.277,11.277,0,0,1-.193-1.459s-6.025-.313-5.184,2.172a3.966,3.966,0,0,1,.227,1.322,1.73,1.73,0,0,1-.021.336A2.817,2.817,0,0,1,308.24,365.619Z" transform="translate(-244.587 -301.478)" fill="#ee8e9e"/>
  <path id="Caminho_80" data-name="Caminho 80" d="M302.4,379.376l.214,3.427.488,2.915.548,1.352.491,7.385s4.712.546,5.865-.011a.488.488,0,0,0,.214-.161c1.386-2.093.932-8.154.932-8.154l.527-3.913-.351-2.031-.857-.09-.655-.071s-.148.182-.362.465c-.58.765-1.647,2.273-1.574,2.9.1.857-.118,1.741-.452,1.879s-.606.373-.664.137a1.052,1.052,0,0,1-.06-.625,5.085,5.085,0,0,0-.255-1.352,5.685,5.685,0,0,1-.488-1.7,2.017,2.017,0,0,0-.214-1.234c-.156-.137-.373-.274-.2-.9s-.771-1.844-.771-1.844Z" transform="translate(-239.998 -315.567)" fill="#e3e8f4"/>
  <path id="Caminho_81" data-name="Caminho 81" d="M331.458,379.856l.2,5.85,1.129.628a.508.508,0,0,0,.214-.163c1.386-2.093.932-8.154.932-8.154l.529-3.913-.353-2.031-.857-.09c.33-1.57.544-3.093.186-3.26-.319-.146-.527-.675-.662-1.242h0l-.61,4.138s.051.373.069.758a2.143,2.143,0,0,1-.049.728,2.431,2.431,0,0,0-.039.979,7.945,7.945,0,0,0-.615,2.885C331.413,378.447,331.458,379.856,331.458,379.856Z" transform="translate(-262.826 -307.496)" opacity="0.1"/>
  <path id="Caminho_82" data-name="Caminho 82" d="M333.192,367s.987.122,1.3.533a1.85,1.85,0,0,0,1.135.471s.938.313.919.39.274.2.857.353a3.956,3.956,0,0,1,1.566.857c0,.133,1.544,1.662,1.544,1.819a3.906,3.906,0,0,1,.411,1.78,6.37,6.37,0,0,0,.118,2.57c.236.214,0,1.056,0,1.056a.578.578,0,0,0-.019.628,5.369,5.369,0,0,1-.041,1.819L341,380.8s-.214.957.039,1-.039.469-.039.469-.214.782.058,1.135a5.8,5.8,0,0,1,.351,1.857l4.188,6.085s.06,1.116-1.27,1.1-1.313.255-1.272.508-.373.529-.373.529-.527.274-.214.606,1.212,1.1-.274,1.6a3.543,3.543,0,0,1-.428-.782,8.879,8.879,0,0,1-.313-1.056s-.137-1.489-.411-1.684-.236-1.135-.236-1.135.392-.763-.156-1.071-8.491-4.712-8.491-4.712l-.193-5.852s-.137-4.325.685-5.773a2.431,2.431,0,0,1,.039-.979,5.069,5.069,0,0,0-.019-1.487Z" transform="translate(-263.227 -307.119)" fill="#3f3d56"/>
  <path id="Caminho_83" data-name="Caminho 83" d="M287.584,377.171a6.8,6.8,0,0,0-2.5-.131c-.529.274-1.564.488-1.714.643s-.546.041-.9.96-.39,1.859-.842,2.29-.683.724-.7,1.037.058.392-.118.488-.428.51-.353.666,4.07,3.6,4.07,3.6a9.438,9.438,0,0,0,.373,1.643c.176.332-.195,4.912-.587,5.224s2.632.287,2.632.287.137-3,.255-3.162a31.033,31.033,0,0,0-.079-3.365,19.121,19.121,0,0,1,.236-3.464,15.57,15.57,0,0,0,.214-3.132,6.439,6.439,0,0,1,.5-1.78C288.347,378.641,287.584,377.171,287.584,377.171Z" transform="translate(-222.747 -314.934)" opacity="0.1"/>
  <path id="Caminho_84" data-name="Caminho 84" d="M287.312,376.9a6.838,6.838,0,0,0-2.5-.133c-.529.272-1.566.491-1.714.643s-.548.039-.9.96-.392,1.857-.842,2.288-.685.724-.7,1.037.06.392-.118.491-.428.508-.351.664,4.07,3.6,4.07,3.6a9.241,9.241,0,0,0,.373,1.643c.178.332-.2,4.912-.589,5.224s2.643.285,2.643.285.137-3,.253-3.159a31.676,31.676,0,0,0-.077-3.367,19.1,19.1,0,0,1,.236-3.461,15.768,15.768,0,0,0,.225-3.132,6.44,6.44,0,0,1,.5-1.78C288.093,378.363,287.312,376.9,287.312,376.9Z" transform="translate(-222.532 -314.719)" fill="#3f3d56"/>
  <path id="Caminho_85" data-name="Caminho 85" d="M312.244,361.985a3.964,3.964,0,0,1,.227,1.322,4.5,4.5,0,0,0,5.141-2.035,11.278,11.278,0,0,1-.193-1.459S311.4,359.5,312.244,361.985Z" transform="translate(-247.67 -301.462)" opacity="0.1"/>
  <path id="Caminho_86" data-name="Caminho 86" d="M298.65,339.122a4.483,4.483,0,1,0,.1-.932,4.433,4.433,0,0,0-.1.932Z" transform="translate(-237.052 -281.692)" fill="#ee8e9e"/>
  <path id="Caminho_87" data-name="Caminho 87" d="M270.816,404l-1.071.332a.555.555,0,0,1-.214.587.643.643,0,0,0-.272.587s-.118.428-.392.529-.45.743-.45.743l-.9,1.037s-.334.274-.274.411-.353.176-.353.176l.214,3.483,1.859.353,1.155-.118.938-.351.823-.491.371-.957,1.645-2.506Z" transform="translate(-212.094 -336.194)" fill="#3f3d56"/>
  <path id="Caminho_88" data-name="Caminho 88" d="M250.538,417.968s-2.386-3.442-4.168-1.585.724,4.873,1.311,4.774,3.386-.255,3.386-.255Z" transform="translate(-195.475 -345.492)" fill="#ee8e9e"/>
  <rect id="Retângulo_36" data-name="Retângulo 36" width="12.494" height="9.701" rx="1.54" transform="translate(49.851 65.457) rotate(27.04)" fill="#3f3d56"/>
  <rect id="Retângulo_37" data-name="Retângulo 37" width="10.502" height="7.915" transform="translate(50.351 66.691) rotate(27.04)" fill="#6c63ff"/>
  <circle id="Elipse_8" data-name="Elipse 8" cx="0.171" cy="0.171" r="0.171" transform="translate(48.021 69.858)" fill="#e6e8ec"/>
  <circle id="Elipse_9" data-name="Elipse 9" cx="0.285" cy="0.285" r="0.285" transform="translate(58.032 74.932)" fill="#e6e8ec"/>
  <path id="Caminho_89" data-name="Caminho 89" d="M260.93,424.729c-.021,2.583,5.321,3.132,5.321,3.132l1.364.214.613.1.255-2.523s-.281-.043-.63-.124c-.518-.12-1.189-.328-1.328-.621C266.3,424.416,260.945,422.146,260.93,424.729Z" transform="translate(-207.411 -351.53)" fill="#ee8e9e"/>
  <path id="Caminho_90" data-name="Caminho 90" d="M299.11,338.2a.531.531,0,0,1,.328.146c.15.161.158.446.356.544a.411.411,0,0,0,.233.026c.521-.073.82-.66,1.322-.822a1.326,1.326,0,0,1,.874.075.684.684,0,0,1,.291.186c.167.214.049.535.126.8.107.364.542.508.917.555a1.606,1.606,0,0,1,1.05.358.951.951,0,0,1,.186.758.592.592,0,0,0,0,.281c.1.293.61.248.743.017.1-.169.069-.308.3-.356a.971.971,0,0,1,.478.084,3.543,3.543,0,0,0,1.24.191,4.481,4.481,0,1,0-8.439-2.838Z" transform="translate(-237.413 -281.705)" opacity="0.1"/>
  <path id="Caminho_91" data-name="Caminho 91" d="M300.772,332.218a.593.593,0,0,1,0-.281.945.945,0,0,0-.186-.756,1.6,1.6,0,0,0-1.05-.36c-.377-.049-.81-.191-.917-.555-.077-.261.041-.58-.126-.795a.642.642,0,0,0-.291-.186,1.328,1.328,0,0,0-.874-.077c-.5.163-.8.75-1.322.823a.394.394,0,0,1-.233-.026c-.2-.1-.214-.383-.356-.544-.238-.251-.69-.088-.979-.274a.9.9,0,0,1-.317-.58,2.814,2.814,0,0,1-.086-1.3c.169-.726.82-1.225,1.234-1.849.388-.578.606-1.311,1.187-1.694a2.374,2.374,0,0,1,1.986-.1,5.6,5.6,0,0,0,.93.244,10.458,10.458,0,0,0,1.591-.1,3.406,3.406,0,0,1,2.1.643,1.15,1.15,0,0,1,.343.347,1.8,1.8,0,0,1,.154.623,3.166,3.166,0,0,0,.413,1.144c.163.276.371.525.518.81a1.255,1.255,0,0,1,.141.927c-.051.161-.15.306-.189.471a1.776,1.776,0,0,0,.336,1.1,2.061,2.061,0,0,1,.229,1.043,1.307,1.307,0,0,1-.469.938,1.7,1.7,0,0,1-.992.3,3.566,3.566,0,0,1-1.264-.191,1,1,0,0,0-.478-.083c-.229.047-.2.186-.3.356C301.383,332.466,300.877,332.511,300.772,332.218Z" transform="translate(-233.395 -272.935)" fill="#3f3d56"/>
  <path id="Caminho_92" data-name="Caminho 92" d="M307.9,460.338l2.525-1.975,3.971-3.913-1.311-.06a.857.857,0,0,0-.276.535c-.019.478-1.071.032-1.621.306s-3.228,3.706-3.7,3.682-.842-.238-1.039.094l-.013.021a.553.553,0,0,1-.3.178Z" transform="translate(-242.937 -375.791)" opacity="0.1"/>
  <path id="Caminho_93" data-name="Caminho 93" d="M290.61,455.275l1.268,4.05.2.643.6-.165,1.332-.366,5.929-1.628a5.155,5.155,0,0,0,2.142-.57,6.462,6.462,0,0,1,3.684-.8c.784.073,1.656-.266,2.38-1.6,0,0,1.643-4.852-2.5-6.242s-4.346.739-4.346.739l-.058.034c-.161.1-.61.428-.628.818-.019.478-1.071.034-1.621.306s-3.228,3.706-3.7,3.682-.842-.238-1.039.1l-.013.021c-.146.2-.58.246-.87.253a2.552,2.552,0,0,1-.27,0l-.039.011-.3.09Z" transform="translate(-230.734 -370.864)" fill="#65617d"/>
  <path id="Caminho_94" data-name="Caminho 94" d="M292.14,435.451l.613.1.255-2.523s-.281-.043-.63-.124A12.914,12.914,0,0,1,292.14,435.451Z" transform="translate(-231.936 -358.904)" opacity="0.1"/>
  <path id="Caminho_95" data-name="Caminho 95" d="M308.47,389.528s1.819-.529,1.369,4.637a14.445,14.445,0,0,1-3.815,8.433s-3.875,1.7-5.616,1.427-3.012-.332-3.012-.332a4.427,4.427,0,0,0-1.763-.469,8.142,8.142,0,0,1-3.072-.842c-.041-.2.51-3.072.274-3.286a18.134,18.134,0,0,1,3.014.308c.274.2.666.058.96,0a3.329,3.329,0,0,1,2.973-.152,1.805,1.805,0,0,0,.842-.1.842.842,0,0,1,.613-.039,1.682,1.682,0,0,0,.428-.214c.058-.077.529,0,.529,0a.214.214,0,0,0,.293-.137,1.285,1.285,0,0,1,.274-.428s.527-2.973,1.525-4.089a.643.643,0,0,0,.214-.568C304.42,393.362,306.123,388.9,308.47,389.528Z" transform="translate(-232.266 -324.775)" opacity="0.1"/>
  <path id="Caminho_96" data-name="Caminho 96" d="M308.249,387.674s1.821-.527,1.371,4.637a14.435,14.435,0,0,1-3.815,8.433s-3.875,1.7-5.616,1.429-3.014-.338-3.014-.338a4.411,4.411,0,0,0-1.761-.469,8.155,8.155,0,0,1-3.072-.842c-.039-.2.508-3.072.274-3.288a18.158,18.158,0,0,1,3.014.311c.274.2.664.056.957,0a3.344,3.344,0,0,1,2.975-.154,1.785,1.785,0,0,0,.84-.1.857.857,0,0,1,.613-.041,1.78,1.78,0,0,0,.428-.214c.058-.079.527,0,.527,0a.214.214,0,0,0,.293-.137,1.284,1.284,0,0,1,.274-.428s.529-2.973,1.527-4.089a.643.643,0,0,0,.214-.568C304.2,391.51,305.9,387.055,308.249,387.674Z" transform="translate(-232.094 -323.319)" fill="#3f3d56"/>
  <path id="Caminho_97" data-name="Caminho 97" d="M300.64,478.19l2.583,3.127.017-.017c.019-.06.274-.724.214-.765a3.638,3.638,0,0,0-1.407-1.429,2.669,2.669,0,0,1-1.107-1.007Z" transform="translate(-238.615 -394.422)" opacity="0.1"/>
  <path id="Caminho_98" data-name="Caminho 98" d="M300.571,491.136l.283.161s.655-.525,1.309-1.054,1.285-1.047,1.285-1.071.274-.724.214-.763-.165-.291-.413-.606c-1.752-.491-.643.726-.488.782a1.784,1.784,0,0,0-2.249,1.833A2.872,2.872,0,0,0,300.571,491.136Z" transform="translate(-238.512 -401.956)" opacity="0.1"/>
  <path id="Caminho_99" data-name="Caminho 99" d="M303.41,492.079l.373.214,3.776.1a7.566,7.566,0,0,0,1.337.643,1.257,1.257,0,0,0,.188.041,8.364,8.364,0,0,0,1.054.019c.289,0,.512-.019.512-.019s-.178-4.762-.313-5.263c-.064-.24-.381-.188-.694-.069a4.73,4.73,0,0,0-.677.343,12.2,12.2,0,0,0-1.857.293c-.255.137-.979-.079-1.429,0s-1.253-.529-1.253-.529c-2.191-.724-.957.625-.8.685a1.783,1.783,0,0,0-2.251,1.833A1.515,1.515,0,0,0,303.41,492.079Z" transform="translate(-239.19 -401.915)" fill="#3f3d56"/>
  <path id="Caminho_100" data-name="Caminho 100" d="M336.373,490.276a6.358,6.358,0,0,0,1.268,2.855c.289,0,.512-.019.512-.019s-.178-4.762-.313-5.263c-.064-.24-.381-.188-.694-.069A5.492,5.492,0,0,0,336.373,490.276Z" transform="translate(-266.693 -401.95)" fill="#565387"/>
  <path id="Caminho_101" data-name="Caminho 101" d="M336.373,490.276a6.358,6.358,0,0,0,1.268,2.855c.289,0,.512-.019.512-.019s-.178-4.762-.313-5.263c-.064-.24-.381-.188-.694-.069A5.492,5.492,0,0,0,336.373,490.276Z" transform="translate(-266.693 -401.95)" opacity="0.1"/>
  <path id="Caminho_102" data-name="Caminho 102" d="M333.127,490.406a11.225,11.225,0,0,0,.673,2.665,1.25,1.25,0,0,0,.188.041,8.341,8.341,0,0,0,1.054.019c.289,0,.512-.019.512-.019s-.178-4.762-.313-5.263c-.064-.24-.381-.188-.694-.069a4.736,4.736,0,0,0-.677.343A2.632,2.632,0,0,0,333.127,490.406Z" transform="translate(-264.093 -401.95)" opacity="0.05"/>
  <path id="Caminho_103" data-name="Caminho 103" d="M272.54,455.34a7.8,7.8,0,0,1,3.466,2.772Z" transform="translate(-216.534 -376.537)" opacity="0.1"/>
  <g id="Grupo_70" data-name="Grupo 70" transform="translate(60.595 53.98)" opacity="0.1">
    <path id="Caminho_104" data-name="Caminho 104" d="M343.417,345.72a.065.065,0,0,1-.011.043,1.182,1.182,0,0,1-.066.163A1.5,1.5,0,0,1,343.417,345.72Z" transform="translate(-332.764 -344.377)"/>
    <path id="Caminho_105" data-name="Caminho 105" d="M294.007,339.844a1.674,1.674,0,0,1,.146-.394.482.482,0,0,1-.03.1,2.845,2.845,0,0,0,.088,1.3.908.908,0,0,0,.315.58c.291.186.743.024.981.274.15.161.158.446.356.544a.394.394,0,0,0,.233.026c.521-.073.82-.66,1.322-.822a1.315,1.315,0,0,1,.874.077.643.643,0,0,1,.291.186c.167.214.049.533.126.795.107.364.542.508.917.555a1.6,1.6,0,0,1,1.05.36.944.944,0,0,1,.186.756.593.593,0,0,0,0,.281c.1.293.61.248.743.017.1-.169.069-.308.3-.356a1,1,0,0,1,.478.084,3.566,3.566,0,0,0,1.264.191,1.694,1.694,0,0,0,.992-.3,1.109,1.109,0,0,0,.3-.371,1.234,1.234,0,0,1-.428.664,1.694,1.694,0,0,1-.992.3,3.566,3.566,0,0,1-1.264-.191,1,1,0,0,0-.478-.084c-.229.047-.2.186-.3.356-.135.231-.643.276-.745-.017a.621.621,0,0,1,0-.281.944.944,0,0,0-.186-.756,1.6,1.6,0,0,0-1.05-.36c-.377-.049-.81-.191-.917-.555-.077-.261.041-.581-.126-.795a.642.642,0,0,0-.289-.186,1.334,1.334,0,0,0-.876-.077c-.5.163-.8.75-1.322.823a.394.394,0,0,1-.233-.026c-.2-.1-.214-.383-.356-.544-.238-.251-.688-.088-.979-.274a.9.9,0,0,1-.317-.58A2.815,2.815,0,0,1,294.007,339.844Z" transform="translate(-293.966 -339.45)"/>
  </g>
  <path id="Caminho_106" data-name="Caminho 106" d="M339.374,410.98c-.36.484-.769.932-1.086,1.442a2.744,2.744,0,0,0-.476,1.714,4.455,4.455,0,0,0,.685-1.225,17.135,17.135,0,0,1,1.317-1.977c.083-.126.623-.857.351-.887C339.939,410.014,339.5,410.815,339.374,410.98Z" transform="translate(-267.822 -340.945)" opacity="0.1"/>
  <path id="Caminho_107" data-name="Caminho 107" d="M345.1,589.368c.259.831.521,1.664.844,2.472a21.024,21.024,0,0,0,2.187,3.986,28.939,28.939,0,0,0,1.808,2.369,7.835,7.835,0,0,1,1.988,3.117,15.9,15.9,0,0,1,.178,2.142,2.621,2.621,0,0,0,.883,1.9,3.216,3.216,0,0,0,1.45.478c.364.058.818.077,1.007-.238a.914.914,0,0,0,.1-.415l.088-1.047c.017-.227.1-.516.326-.527s.341.291.533.428a.58.58,0,0,0,.784-.272,1.322,1.322,0,0,0,.021-.921,4.363,4.363,0,0,0-2.243-2.785,6.424,6.424,0,0,1-1.092-.568,3.734,3.734,0,0,1-.857-1.084,67.376,67.376,0,0,1-5.389-10.125,7.5,7.5,0,0,1-.555-2,13.108,13.108,0,0,1,.086-2.108,11.993,11.993,0,0,0-.347-3.755,3,3,0,0,0-.358-.912,2.035,2.035,0,0,0-2.785-.4,2.87,2.87,0,0,0-1.11,2.028,5.85,5.85,0,0,0,.555,2.11Q344.146,586.31,345.1,589.368Z" transform="translate(-271.619 -473.501)" fill="#a1616a"/>
  <path id="Caminho_108" data-name="Caminho 108" d="M345.1,589.368c.259.831.521,1.664.844,2.472a21.024,21.024,0,0,0,2.187,3.986,28.939,28.939,0,0,0,1.808,2.369,7.835,7.835,0,0,1,1.988,3.117,15.9,15.9,0,0,1,.178,2.142,2.621,2.621,0,0,0,.883,1.9,3.216,3.216,0,0,0,1.45.478c.364.058.818.077,1.007-.238a.914.914,0,0,0,.1-.415l.088-1.047c.017-.227.1-.516.326-.527s.341.291.533.428a.58.58,0,0,0,.784-.272,1.322,1.322,0,0,0,.021-.921,4.363,4.363,0,0,0-2.243-2.785,6.424,6.424,0,0,1-1.092-.568,3.734,3.734,0,0,1-.857-1.084,67.376,67.376,0,0,1-5.389-10.125,7.5,7.5,0,0,1-.555-2,13.108,13.108,0,0,1,.086-2.108,11.993,11.993,0,0,0-.347-3.755,3,3,0,0,0-.358-.912,2.035,2.035,0,0,0-2.785-.4,2.87,2.87,0,0,0-1.11,2.028,5.85,5.85,0,0,0,.555,2.11Q344.146,586.31,345.1,589.368Z" transform="translate(-271.619 -473.501)" opacity="0.05"/>
  <path id="Caminho_109" data-name="Caminho 109" d="M294.268,769.248a2.856,2.856,0,0,0,1.208.146c.03-.334.48-.409.814-.392a.929.929,0,0,1,.465.107c.084.054.148.131.229.186a.991.991,0,0,0,.473.122l1.739.146a5.235,5.235,0,0,0,2.309-.15.8.8,0,0,0,.371-.248c.2-.283,0-.687-.272-.893s-.623-.3-.9-.508c-.6-.461-.688-1.322-1.007-2.011a5.935,5.935,0,0,0-.833-1.206,4.63,4.63,0,0,0-.82-.842,4.333,4.333,0,0,0-2.32-.565,1.554,1.554,0,0,0-1.538.428c-.514.643-.308,1.928-.276,2.677A19.377,19.377,0,0,0,294.268,769.248Z" transform="translate(-233.275 -618.385)" fill="#514e7f"/>
  <path id="Caminho_110" data-name="Caminho 110" d="M294.268,769.248a2.856,2.856,0,0,0,1.208.146c.03-.334.48-.409.814-.392a.929.929,0,0,1,.465.107c.084.054.148.131.229.186a.991.991,0,0,0,.473.122l1.739.146a5.235,5.235,0,0,0,2.309-.15.8.8,0,0,0,.371-.248c.2-.283,0-.687-.272-.893s-.623-.3-.9-.508c-.6-.461-.688-1.322-1.007-2.011a5.935,5.935,0,0,0-.833-1.206,4.63,4.63,0,0,0-.82-.842,4.333,4.333,0,0,0-2.32-.565,1.554,1.554,0,0,0-1.538.428c-.514.643-.308,1.928-.276,2.677A19.377,19.377,0,0,0,294.268,769.248Z" transform="translate(-233.275 -618.385)" opacity="0.05"/>
  <path id="Caminho_111" data-name="Caminho 111" d="M284.168,628.669a1.209,1.209,0,0,0-.664,1.384,5.09,5.09,0,0,0,.7,1.514c.775,1.386,1.11,2.971,1.761,4.417.486,1.071,1.144,2.078,1.624,3.161a5.4,5.4,0,0,1,.486,3.457c-.141.559-.416,1.071-.6,1.621a9,9,0,0,0-.351,1.831,34.782,34.782,0,0,0-.126,6.353,1.9,1.9,0,0,0,.159.75c.109.214.3.428.214.643-.036.088-.116.152-.154.238-.111.24.111.495.315.666a.554.554,0,0,1-.341.263.806.806,0,0,1,.343.9c-.18.028-.191.3-.077.45s.293.236.375.4a.559.559,0,0,1-.308.7,1.467,1.467,0,0,1-.84.064,9.224,9.224,0,0,1-1.4-.308,1.015,1.015,0,0,1-.818-1.05,15.591,15.591,0,0,1-.1-2.628c.075-4.25,0-8.5-.184-12.751a14.531,14.531,0,0,0-1.251-4.95,25.969,25.969,0,0,0-1.219-2.356,9.886,9.886,0,0,1-1.581-5.665c.024-.214.1-.469.313-.5a.454.454,0,0,1,.242.041,10.893,10.893,0,0,1,1.274.7A4.81,4.81,0,0,0,284.168,628.669Z" transform="translate(-222.473 -511.639)" fill="#464353"/>
  <path id="Caminho_112" data-name="Caminho 112" d="M284.168,628.669a1.209,1.209,0,0,0-.664,1.384,5.09,5.09,0,0,0,.7,1.514c.775,1.386,1.11,2.971,1.761,4.417.486,1.071,1.144,2.078,1.624,3.161a5.4,5.4,0,0,1,.486,3.457c-.141.559-.416,1.071-.6,1.621a9,9,0,0,0-.351,1.831,34.782,34.782,0,0,0-.126,6.353,1.9,1.9,0,0,0,.159.75c.109.214.3.428.214.643-.036.088-.116.152-.154.238-.111.24.111.495.315.666a.554.554,0,0,1-.341.263.806.806,0,0,1,.343.9c-.18.028-.191.3-.077.45s.293.236.375.4a.559.559,0,0,1-.308.7,1.467,1.467,0,0,1-.84.064,9.224,9.224,0,0,1-1.4-.308,1.015,1.015,0,0,1-.818-1.05,15.591,15.591,0,0,1-.1-2.628c.075-4.25,0-8.5-.184-12.751a14.531,14.531,0,0,0-1.251-4.95,25.969,25.969,0,0,0-1.219-2.356,9.886,9.886,0,0,1-1.581-5.665c.024-.214.1-.469.313-.5a.454.454,0,0,1,.242.041,10.893,10.893,0,0,1,1.274.7A4.81,4.81,0,0,0,284.168,628.669Z" transform="translate(-222.473 -511.639)" opacity="0.05"/>
  <path id="Caminho_113" data-name="Caminho 113" d="M249.507,608.621a1.389,1.389,0,0,0-1.93.219,10.287,10.287,0,0,0-1,.878A5.342,5.342,0,0,0,245.383,615a10.413,10.413,0,0,0,1.461,2.594L248,619.26c1.765,2.534,3.53,5.068,5.378,7.542a.287.287,0,0,0,.2.272c.066.017.15.015.191.071a.2.2,0,0,1,.024.114,1.639,1.639,0,0,1-.1.536.255.255,0,0,0-.021.184c.06.139.313.06.394.191.054.086-.013.2-.084.27s-.158.154-.146.255.189.214.182.338c0,.073-.064.129-.109.186a.478.478,0,0,0,.058.608c.122,1.208-.535,2.356-.666,3.56-.214,1.9.653,3.759.758,5.668a1.467,1.467,0,0,0,.12.625c.178.33.643.529.619.9a3.624,3.624,0,0,1-.131.454,3.451,3.451,0,0,0,.071.643c0,.214-.186.478-.388.392q.227.758.4,1.529l4.048.334a3.592,3.592,0,0,0-.036-1.092c-.084-.392-.259-.756-.351-1.144a1.354,1.354,0,0,1,.159-1.146.448.448,0,0,1-.446-.366,1.781,1.781,0,0,1,.011-.63c.107-1.056-.336-2.1-.323-3.157a15.41,15.41,0,0,1,.454-2.459c.317-1.756-.013-3.661.769-5.265.473-.966,1.129-2.037.6-2.973-.261-.463-.724-.78-1.026-1.217a4.951,4.951,0,0,1-.548-1.326,44.771,44.771,0,0,0-2.517-5.552A5.784,5.784,0,0,1,255,616.15a7.647,7.647,0,0,1-.069-1.347,19.861,19.861,0,0,0-.148-2.418,2.3,2.3,0,0,0-.293-1,2.239,2.239,0,0,0-.643-.576A42.441,42.441,0,0,0,249.507,608.621Z" transform="translate(-194.994 -496.757)" fill="#464353"/>
  <path id="Caminho_114" data-name="Caminho 114" d="M286.674,776.171a2.9,2.9,0,0,0,1.21.144c.03-.334.478-.409.812-.392a.93.93,0,0,1,.465.107c.084.054.148.133.231.186a.968.968,0,0,0,.473.122l1.737.146a5.213,5.213,0,0,0,2.311-.15.776.776,0,0,0,.368-.248c.2-.283,0-.685-.272-.891s-.623-.3-.9-.51c-.606-.461-.688-1.319-1.009-2.009a5.8,5.8,0,0,0-.831-1.208,4.627,4.627,0,0,0-.823-.84,4.308,4.308,0,0,0-2.318-.568,1.556,1.556,0,0,0-1.538.428c-.514.643-.308,1.928-.278,2.68a19.411,19.411,0,0,0,.356,3Z" transform="translate(-227.31 -623.825)" fill="#514e7f"/>
  <circle id="Elipse_10" data-name="Elipse 10" cx="4.01" cy="4.01" r="4.01" transform="translate(73.298 96.834)" fill="#a1616a"/>
  <path id="Caminho_115" data-name="Caminho 115" d="M325.872,561.011a3.782,3.782,0,0,1-2.153.608,13.522,13.522,0,0,0-4.633,1.341,1.671,1.671,0,0,0-.535.368,1.512,1.512,0,0,0-.272.574,3.75,3.75,0,0,0-.152,1.394,3.974,3.974,0,0,0,.388,1.311A7.068,7.068,0,0,0,321,569.442a1.82,1.82,0,0,0,.63.3,3.532,3.532,0,0,0,1.557-.332,2.545,2.545,0,0,1,1.437.045c.428.146.9.411,1.322.234a1.356,1.356,0,0,0,.6-.681,23.171,23.171,0,0,0,1.095-2.386,9.177,9.177,0,0,1,.4-.934c.465-.885,1.268-1.568,1.669-2.487a.546.546,0,0,0,.039-.467.642.642,0,0,0-.3-.225,7.027,7.027,0,0,1-1.6-1.257c-.263-.253-.748-.936-1.127-1C326.29,560.184,326.161,560.762,325.872,561.011Z" transform="translate(-252.347 -458.976)" fill="#a1616a"/>
  <path id="Caminho_116" data-name="Caminho 116" d="M283.217,579.267a2.458,2.458,0,0,1-1.516.017,17.3,17.3,0,0,1-3.813-1.107,2.065,2.065,0,0,1-.936-.72,2.357,2.357,0,0,1-.261-.9l-.214-1.5a8.732,8.732,0,0,1,.069-1.529.444.444,0,0,0-.088-.332.362.362,0,0,0-.263-.083c-.6.011-.966.643-1.388,1.071a2.571,2.571,0,0,1-.857.574c-.386.159-.857.27-1.017.655-.064.161-.056.343-.124.5-.27.643-1.42.428-1.714,1.071-.084.18-.077.4-.214.546s-.394.139-.606.173c-.837.137-1.242,1.1-1.958,1.559a15.818,15.818,0,0,1-2.026.677,7.7,7.7,0,0,1-1.06.538,5.013,5.013,0,0,1-1.221.062.319.319,0,0,0-.242.079.323.323,0,0,0-.041.266,7.381,7.381,0,0,0,4.56,5.715,1.527,1.527,0,0,1,.39.189c.364.272.428.857.842,1.05a.857.857,0,0,0,.876-.188,7.863,7.863,0,0,0,.643-.7,2.517,2.517,0,0,1,1.412-.743,3.1,3.1,0,0,0,1.454-.328,4.516,4.516,0,0,0,.458-.488,2.878,2.878,0,0,1,1.039-.621,10.617,10.617,0,0,1,3.305-.726,11.529,11.529,0,0,0,3.14-.3,1.893,1.893,0,0,0,.7-.4,2.106,2.106,0,0,0,.467-.812A6.212,6.212,0,0,0,283.217,579.267Z" transform="translate(-209.598 -469.085)" fill="#6c63ff"/>
  <path id="Caminho_117" data-name="Caminho 117" d="M322.459,573.928c.3-.028.593,0,.891,0,.349,0,.694-.086,1.043-.088a2.594,2.594,0,0,1,2.446,1.861.482.482,0,0,1,.015.263.186.186,0,0,1-.2.137,4.439,4.439,0,0,0-.452-.9,2.533,2.533,0,0,0-1.345-.938,3.482,3.482,0,0,0-1.654-.06c-.229.043-.452.1-.675.165l-1.071.3c-.2.054-.4.107-.587.178-.148.056-.4.259-.546.268-.2,0-.039-.171.049-.287a1.425,1.425,0,0,1,.7-.51A6.067,6.067,0,0,1,322.459,573.928Z" transform="translate(-254.008 -469.655)" fill="#6c63ff"/>
  <path id="Caminho_118" data-name="Caminho 118" d="M334.216,591.458c.259.831.518,1.664.844,2.472a20.907,20.907,0,0,0,2.187,3.986,28.918,28.918,0,0,0,1.808,2.369,8.01,8.01,0,0,1,1.988,3.114,15.964,15.964,0,0,1,.178,2.142,2.631,2.631,0,0,0,.88,1.9,3.286,3.286,0,0,0,1.452.478c.362.058.816.077,1.007-.238a.951.951,0,0,0,.1-.416l.086-1.047c.019-.227.1-.516.326-.527s.343.291.535.428a.581.581,0,0,0,.784-.272,1.332,1.332,0,0,0,.021-.921,4.376,4.376,0,0,0-2.243-2.785,6.537,6.537,0,0,1-1.095-.568,3.709,3.709,0,0,1-.857-1.086,66.783,66.783,0,0,1-5.389-10.125,7.553,7.553,0,0,1-.557-1.994,13.108,13.108,0,0,1,.088-2.108,12,12,0,0,0-.347-3.755,2.952,2.952,0,0,0-.36-.912,2.033,2.033,0,0,0-2.785-.4,2.872,2.872,0,0,0-1.112,2.028,5.9,5.9,0,0,0,.555,2.11Q333.26,588.4,334.216,591.458Z" transform="translate(-263.062 -475.141)" fill="#a1616a"/>
  <path id="Caminho_119" data-name="Caminho 119" d="M347.234,532.427c.032-.334-.268-.643-.608-.857a8.06,8.06,0,0,1-1.03-.63c-.3-.263-.471-.606-.775-.87a3.447,3.447,0,0,0-1.157-.576A8.807,8.807,0,0,0,340.9,529a4.8,4.8,0,0,0-2.645.7,1.567,1.567,0,0,0-.45.428,1.838,1.838,0,0,0-.214.664,13.106,13.106,0,0,1-.692,2.1,4.892,4.892,0,0,1-1.315,2.125c-.75.623-1.9.983-2.39,1.737a.557.557,0,0,0-.109.486c.071.191.3.321.508.441a6.878,6.878,0,0,1,2.806,2.686,3.117,3.117,0,0,1-.244,3.352c-.283.368-.673.805-.4,1.176.428.563,1.861.24,2.2.835a1.215,1.215,0,0,1,.043.615c0,.625.6,1.18,1.332,1.469a7.5,7.5,0,0,0,2.4.394,2.1,2.1,0,0,0,.06-1.553.626.626,0,0,1-.062-.353.856.856,0,0,1,.276-.338,2.452,2.452,0,0,0,.165-3.039A17.391,17.391,0,0,1,340.506,540a1.51,1.51,0,0,1,.257-1.525,5.153,5.153,0,0,1,.756-.551,2.857,2.857,0,0,0,1.058-1.328c.246-.683.214-1.5.93-1.96.688-.428,1.654-.3,2.414-.6A2.583,2.583,0,0,0,347.234,532.427Z" transform="translate(-264.094 -434.42)" fill="#464353"/>
  <path id="Caminho_120" data-name="Caminho 120" d="M561.35,651.532c-3.267-1.352-4.226-2.328-4.226-4.284,0-1.5.66-3.23,3.551-3.23a8.154,8.154,0,0,1,4.515,1.285l.94-2.487a9.973,9.973,0,0,0-4.882-1.315V637.86h-1.9v3.791c-3.455.563-5.456,2.928-5.456,6.045,0,3.266,1.928,5,5.766,6.5,2.78,1.133,4.235,2.41,4.235,4.475,0,2.142-1.8,3.68-4.468,3.68a11.59,11.59,0,0,1-5.835-1.615l-.9,2.515a10.935,10.935,0,0,0,5.745,1.654v3.791h3.232v-3.9c3.856-.643,5.931-3.427,5.931-6.383C567.6,655.062,565.218,653.109,561.35,651.532Z" transform="translate(-436.677 -519.962)" fill="url(#linear-gradient-2)"/>
  <path id="Caminho_121" data-name="Caminho 121" d="M558.475,664.715v-3.791a10.935,10.935,0,0,1-5.745-1.654l.9-2.515a11.589,11.589,0,0,0,5.835,1.615c2.667,0,4.46-1.538,4.46-3.68,0-2.065-1.463-3.341-4.243-4.468-3.83-1.5-5.766-3.23-5.766-6.5,0-3.117,2-5.481,5.456-6.045V633.89h1.9v3.641a10,10,0,0,1,4.882,1.315l-.94,2.476a8.154,8.154,0,0,0-4.515-1.285c-2.892,0-3.551,1.729-3.551,3.23,0,1.951.96,2.928,4.226,4.284,3.868,1.576,6.248,3.53,6.248,6.871,0,2.967-2.065,5.745-5.931,6.383v3.909Z" transform="translate(-436.709 -516.843)" fill="#6c63ff"/>
</svg>
